<?xml version="1.0" encoding="utf-8"?>
<svg version="1.1" xmlns:xlink="http://www.w3.org/1999/xlink" width="25px" height="25px" xmlns="http://www.w3.org/2000/svg">
  <g transform="matrix(1 0 0 1 -349 -103 )">
    <path d="M 19.482421875 14.274088541666668  C 19.688585069444446 14.067925347222221  19.791666666666664 13.823784722222221  19.791666666666664 13.541666666666668  L 19.791666666666664 11.458333333333334  C 19.791666666666664 11.176215277777777  19.688585069444446 10.932074652777777  19.482421875 10.725911458333334  C 19.276258680555557 10.51974826388889  19.032118055555557 10.416666666666666  18.75 10.416666666666666  L 14.583333333333334 10.416666666666666  L 14.583333333333334 6.25  C 14.583333333333334 5.967881944444442  14.480251736111112 5.723741319444442  14.274088541666666 5.517578125  C 14.067925347222223 5.311414930555555  13.823784722222223 5.208333333333334  13.541666666666666 5.208333333333334  L 11.458333333333332 5.208333333333334  C 11.176215277777779 5.208333333333334  10.932074652777779 5.311414930555555  10.725911458333332 5.517578125  C 10.51974826388889 5.723741319444442  10.416666666666668 5.967881944444442  10.416666666666668 6.25  L 10.416666666666668 10.416666666666666  L 6.25 10.416666666666666  C 5.967881944444445 10.416666666666666  5.723741319444445 10.51974826388889  5.517578125 10.725911458333334  C 5.311414930555556 10.932074652777777  5.208333333333334 11.176215277777777  5.208333333333334 11.458333333333334  L 5.208333333333334 13.541666666666668  C 5.208333333333334 13.823784722222221  5.311414930555556 14.067925347222221  5.517578125 14.274088541666668  C 5.723741319444445 14.48025173611111  5.967881944444445 14.583333333333332  6.25 14.583333333333332  L 10.416666666666668 14.583333333333332  L 10.416666666666668 18.75  C 10.416666666666668 19.032118055555554  10.51974826388889 19.276258680555554  10.725911458333332 19.482421875  C 10.932074652777779 19.688585069444446  11.176215277777779 19.791666666666664  11.458333333333332 19.791666666666664  L 13.541666666666666 19.791666666666664  C 13.823784722222223 19.791666666666664  14.067925347222223 19.688585069444446  14.274088541666666 19.482421875  C 14.480251736111112 19.276258680555554  14.583333333333334 19.032118055555554  14.583333333333334 18.75  L 14.583333333333334 14.583333333333332  L 18.75 14.583333333333332  C 19.032118055555557 14.583333333333332  19.276258680555557 14.48025173611111  19.482421875 14.274088541666668  Z M 23.323567708333336 6.2255859375  C 24.441189236111107 8.140733506944443  25 10.232204861111107  25 12.5  C 25 14.76779513888889  24.441189236111107 16.859266493055554  23.323567708333336 18.7744140625  C 22.205946180555557 20.689561631944446  20.689561631944446 22.205946180555554  18.7744140625 23.323567708333336  C 16.859266493055557 24.441189236111114  14.76779513888889 25  12.5 25  C 10.232204861111112 25  8.140733506944445 24.441189236111114  6.2255859375 23.323567708333336  C 4.310438368055556 22.205946180555554  2.7940538194444446 20.689561631944446  1.6764322916666667 18.7744140625  C 0.5588107638888888 16.859266493055554  0 14.76779513888889  0 12.5  C 0 10.232204861111107  0.5588107638888888 8.140733506944443  1.6764322916666667 6.2255859375  C 2.7940538194444446 4.310438368055555  4.310438368055556 2.794053819444442  6.2255859375 1.6764322916666656  C 8.140733506944445 0.5588107638888867  10.232204861111112 0  12.5 0  C 14.76779513888889 0  16.859266493055557 0.5588107638888867  18.7744140625 1.6764322916666656  C 20.689561631944446 2.794053819444442  22.205946180555557 4.310438368055555  23.323567708333336 6.2255859375  Z " fill-rule="nonzero" fill="#009774" stroke="none" transform="matrix(1 0 0 1 349 103 )" />
  </g>
</svg>